<svg xmlns="http://www.w3.org/2000/svg" viewBox="0 0 25.7 8.16">
  <defs>
    <style>
      .a {
        fill: #d93b43;
      }

      .b {
        fill: #2799b5;
      }
    </style>
  </defs>
  <g>
    <path class="a" d="M3.18,4.3V10H.8V2H3.9a5,5,0,0,1,3.2.93,3.67,3.67,0,0,1,1.37,3,3.92,3.92,0,0,1-1.18,3,4.09,4.09,0,0,1-3,1.15l-.71,0V7.68H4C5.34,7.68,6,7.1,6,5.94S5.35,4.3,4,4.3Z" transform="translate(-0.8 -2)"/>
    <path class="b" d="M12.19,4a2.87,2.87,0,0,1,2.13.89,2.91,2.91,0,0,1,.89,2.14,2.91,2.91,0,0,1-.9,2.16,3.09,3.09,0,0,1-4.34,0,3,3,0,0,1-.91-2.16A2.92,2.92,0,0,1,10,4.91,3.07,3.07,0,0,1,12.19,4ZM12.13,6.2a.78.78,0,0,0-.59.25.91.91,0,0,0,0,1.25.8.8,0,0,0,.59.26.83.83,0,0,0,.61-.26.93.93,0,0,0,0-1.25A.82.82,0,0,0,12.13,6.2Z" transform="translate(-0.8 -2)"/>
    <path class="b" d="M19.71,7.31l2.17-.08a3.06,3.06,0,0,1-.94,2.08,2.88,2.88,0,0,1-2.07.82,2.92,2.92,0,0,1-2.17-.9A3,3,0,0,1,15.81,7a2.84,2.84,0,0,1,.9-2.11,3.06,3.06,0,0,1,4.08-.19,2.89,2.89,0,0,1,1,1.76l-2.22.08a.87.87,0,0,0-.73-.37.79.79,0,0,0-.61.25.84.84,0,0,0-.24.62.89.89,0,0,0,.25.64.87.87,0,0,0,.64.25A.82.82,0,0,0,19.71,7.31Z" transform="translate(-0.8 -2)"/>
    <path class="b" d="M26.5,4.24V6.55a.9.9,0,0,0-.63.17,1.14,1.14,0,0,0-.22.69A2.9,2.9,0,0,1,24.33,9.8a3.47,3.47,0,0,1-1.74.36h-.31V7.84h.1a1.06,1.06,0,0,0,.76-.22,1.2,1.2,0,0,0,.26-.77,5.44,5.44,0,0,1,.16-1.26,1.93,1.93,0,0,1,.49-.72,2.46,2.46,0,0,1,1.79-.63Z" transform="translate(-0.8 -2)"/>
  </g>
</svg>
